<svg xmlns="http://www.w3.org/2000/svg" xmlns:xlink="http://www.w3.org/1999/xlink" viewBox="0 0 500 500"><defs><clipPath id="freepik--clip-path--inject-169"><path d="M423.29,196.59l-2.7,18s-14.9,6.54-18,11.8l-.74.1-3.5.49-1.89-.56a105.85,105.85,0,0,0-14.1-3.08,21.76,21.76,0,0,0-5-.19l-10.08-15.71s15.59-2.16,26.37,1.53l5.16-.36.19-.16C400.55,207.18,411.41,198.55,423.29,196.59Z" style="fill:#9295E3;stroke:#263238;stroke-linecap:round;stroke-linejoin:round"></path></clipPath><clipPath id="freepik--clip-path-2--inject-169"><path d="M234.77,412.2H211.09l-12.82-4.06-4-1.27-1.17,12.07-140.22.26s2.14-5.4,5.63-13.32c7.53-17.09,21.33-45.95,33.4-57.74,9.8-9.57,34.28-9.84,34.28-9.84a15.25,15.25,0,0,1,8.43-2.54c4.5.22,38.52,3.91,40.63,5a11.42,11.42,0,0,1,3.69,3.42s11.92-5.27,23.63-.52S234.77,412.2,234.77,412.2Z" style="fill:#bfbfbf;stroke:#263238;stroke-linecap:round;stroke-linejoin:round"></path></clipPath><clipPath id="freepik--clip-path-3--inject-169"><path d="M220.32,391.89s3.64-2.26,6.83-1.52,5.83,3.89,5.83,3.89,26.48-2.19,32.49-2,19.46,4.13,19.46,4.13,6.52-1.32,7.22-1.05-1.41,22.46-1.41,22.46h-86c-4.22,0-7.35-6.11-10.52-10.91a215.44,215.44,0,0,0,8.3-58.73" style="fill:#bfbfbf;stroke:#263238;stroke-linecap:round;stroke-linejoin:round"></path></clipPath><clipPath id="freepik--clip-path-4--inject-169"><path d="M181.88,413.87H342.06a5.33,5.33,0,0,1-5.33,5.33h-142a5.36,5.36,0,0,1-1.64-.26l-11.41-3.68A.71.71,0,0,1,181.88,413.87Z" style="fill:#9295E3;stroke:#263238;stroke-linecap:round;stroke-linejoin:round"></path></clipPath><clipPath id="freepik--clip-path-5--inject-169"><path d="M370.73,348.12l0,.13L352.09,413.1a4.32,4.32,0,0,1-3.93,2.95h-97.1a2.2,2.2,0,0,1-2.24-2.95l18.62-64.85a4.31,4.31,0,0,1,3.93-2.95h97.1A2.17,2.17,0,0,1,370.73,348.12Z" style="fill:#9295E3;stroke:#263238;stroke-linecap:round;stroke-linejoin:round"></path></clipPath><clipPath id="freepik--clip-path-6--inject-169"><path d="M207.09,419.2h-134l1.62-3.38S87.37,417,97.4,413.87c4.43-1.38,11.25-2,18.09-1.92,4.31.06,14.8.1,21.31.07h0c2.32,0,4.14,0,5-.06.33,0,.66,0,1,0a26.28,26.28,0,0,1,5.53.52,41.72,41.72,0,0,1,5.29-.26c3.09,0,16.38-.05,20,0,4.77.06,10.28,1,15.51,1.72l.14-.05,0,.07c6.32.88,12.24,1.48,16-.07Z" style="fill:#fff;stroke:#263238;stroke-linecap:round;stroke-linejoin:round"></path></clipPath></defs><g id="freepik--background-simple--inject-169"><path d="M209.77,428.93C90.17,408,106.17,346.13,68.53,274.71S26.44,174.22,63.72,113,181.64,17.35,256.79,68.56s130,35.33,175.46,75.22,51.56,95.57-2.33,145.18S357.24,454.71,209.77,428.93Z" style="fill:#9295E3"></path><path d="M209.77,428.93C90.17,408,106.17,346.13,68.53,274.71S26.44,174.22,63.72,113,181.64,17.35,256.79,68.56s130,35.33,175.46,75.22,51.56,95.57-2.33,145.18S357.24,454.71,209.77,428.93Z" style="fill:#fff;opacity:0.7000000000000001"></path></g><g id="freepik--Window--inject-169"><polyline points="64.28 266.92 64.28 92.47 79.12 92.47" style="fill:none;stroke:#263238;stroke-linecap:round;stroke-linejoin:round"></polyline><line x1="64.29" y1="295.44" x2="64.29" y2="289.08" style="fill:none;stroke:#263238;stroke-linecap:round;stroke-linejoin:round"></line><polyline points="117.27 92.47 270.33 92.47 270.33 317.77 64.28 317.77" style="fill:none;stroke:#263238;stroke-linecap:round;stroke-linejoin:round"></polyline><line x1="98.5" y1="92.47" x2="111.95" y2="92.47" style="fill:none;stroke:#263238;stroke-linecap:round;stroke-linejoin:round"></line><rect x="72.03" y="100.21" width="190.55" height="209.83" style="fill:none;stroke:#263238;stroke-linecap:round;stroke-linejoin:round"></rect><polyline points="253.72 114.93 253.72 196.54 80.89 196.54 80.89 189.1" style="fill:none;stroke:#263238;stroke-linecap:round;stroke-linejoin:round"></polyline><polyline points="80.89 171.64 80.89 108.31 253.72 108.31" style="fill:none;stroke:#263238;stroke-linecap:round;stroke-linejoin:round"></polyline><line x1="80.9" y1="183.37" x2="80.9" y2="176.13" style="fill:none;stroke:#263238;stroke-linecap:round;stroke-linejoin:round"></line><line x1="224.54" y1="205.12" x2="262.58" y2="205.12" style="fill:none;stroke:#263238;stroke-linecap:round;stroke-linejoin:round"></line><line x1="211.01" y1="205.12" x2="216.39" y2="205.12" style="fill:none;stroke:#263238;stroke-linecap:round;stroke-linejoin:round"></line><line x1="72.03" y1="205.12" x2="204.58" y2="205.12" style="fill:none;stroke:#263238;stroke-linecap:round;stroke-linejoin:round"></line><polyline points="157.73 196.54 157.73 192.62 173.66 192.62 173.66 194.85 167.31 194.85 167.31 196.54" style="fill:none;stroke:#263238;stroke-linecap:round;stroke-linejoin:round"></polyline><path d="M72.36,275.45s2.64,2,4.5,14.1c0,0,3.2-19.33,7.08-19.63S87,282.5,87,282.5s.64-6.35,3.68-6.06,0,13.11,0,13.11,3.65-10,7.1-9.82-2.29,18.11-2.29,18.11,8.86-6.42,12.45-3.28-2,11.06-2,11.06,12.71-2.76,14.68,4.69" style="fill:none;stroke:#263238;stroke-linecap:round;stroke-linejoin:round"></path><path d="M120.65,303.09s5.54-3.63,9.89-1.94c0,0-2.77-4.22,0-6.8s6.33,6.8,6.33,6.8.4-15.71,5.94-14.92,0,14.92,0,14.92,9.89-8.76,12.26-5.71-1.58,7.65-1.58,7.65,5.93-1.9,10.28,2.53c0,0,6.63-6.77,14-7.74,0,0-4.9-14.22-2.52-17.09s6.68,12.41,6.68,12.41,1.89-9.94,8.08-10.7c0,0-5.16-2.81-3.63-7.05s8.65,1,8.65,1-2.93-7.47,1.7-9.52,6.56,6.25,6.56,6.25,1.29-8.7,6.73-8.22,3.68,10.5,3.68,10.5,5.13-8,7.88-7.15c5.49,1.62,3.82,14.2,3.82,14.2s7.67-5.33,9.64-2.88c2.13,2.65-8,9.46-8,9.46s7.61.84,12.34,5.27" style="fill:none;stroke:#263238;stroke-linecap:round;stroke-linejoin:round"></path><path d="M262.58,278.32s-.87-8-8.86-8.4,2.2,17.5,2.2,17.5-6.59-5.45-8.95-3.77,6.75,10.91,6.75,10.91-4.37-4-9-2.79,2.63,14.1,2.63,14.1a32.92,32.92,0,0,0-20.29,2.37" style="fill:none;stroke:#263238;stroke-linecap:round;stroke-linejoin:round"></path></g><g id="freepik--book-shelf--inject-169"><polyline points="342.06 385.62 342.06 285.94 454.3 285.94" style="fill:none;stroke:#263238;stroke-linecap:round;stroke-linejoin:round"></polyline><polyline points="450.22 296.25 351.09 296.25 351.09 389.1" style="fill:none;stroke:#263238;stroke-linecap:round;stroke-linejoin:round"></polyline><polyline points="370.93 346.89 370.93 305.62 377.42 305.62 377.42 314.13 386.08 314.13 386.08 310.31 393.82 310.31 393.82 314.94 404.27 314.94 404.27 305.62 414.96 305.62 414.96 311.88 420.72 311.88 420.72 308.24 431.04 308.24 431.04 332.55" style="fill:none;stroke:#263238;stroke-linecap:round;stroke-linejoin:round"></polyline><line x1="420.72" y1="311.88" x2="420.72" y2="346.89" style="fill:none;stroke:#263238;stroke-linecap:round;stroke-linejoin:round"></line><line x1="415.79" y1="317.12" x2="415.79" y2="323.37" style="fill:none;stroke:#263238;stroke-linecap:round;stroke-linejoin:round"></line><line x1="415.79" y1="327.85" x2="415.79" y2="353.52" style="fill:none;stroke:#263238;stroke-linecap:round;stroke-linejoin:round"></line><line x1="404.27" y1="314.95" x2="404.27" y2="338.01" style="fill:none;stroke:#263238;stroke-linecap:round;stroke-linejoin:round"></line><line x1="404.67" y1="345.61" x2="404.67" y2="352.79" style="fill:none;stroke:#263238;stroke-linecap:round;stroke-linejoin:round"></line><line x1="393.82" y1="314.95" x2="393.82" y2="327.85" style="fill:none;stroke:#263238;stroke-linecap:round;stroke-linejoin:round"></line><line x1="393.82" y1="335.78" x2="393.82" y2="362.96" style="fill:none;stroke:#263238;stroke-linecap:round;stroke-linejoin:round"></line><line x1="386.08" y1="314.13" x2="386.08" y2="346.17" style="fill:none;stroke:#263238;stroke-linecap:round;stroke-linejoin:round"></line><line x1="377.42" y1="314.13" x2="377.42" y2="326.25" style="fill:none;stroke:#263238;stroke-linecap:round;stroke-linejoin:round"></line><line x1="377.42" y1="332.55" x2="377.42" y2="361.36" style="fill:none;stroke:#263238;stroke-linecap:round;stroke-linejoin:round"></line><line x1="370.93" y1="352.79" x2="370.93" y2="365.8" style="fill:none;stroke:#263238;stroke-linecap:round;stroke-linejoin:round"></line><line x1="357.54" y1="365.8" x2="436.32" y2="365.8" style="fill:none;stroke:#263238;stroke-linecap:round;stroke-linejoin:round"></line><line x1="420.72" y1="365.8" x2="420.72" y2="357.47" style="fill:none;stroke:#263238;stroke-linecap:round;stroke-linejoin:round"></line><line x1="404.67" y1="359.67" x2="404.67" y2="365.41" style="fill:none;stroke:#263238;stroke-linecap:round;stroke-linejoin:round"></line><line x1="431.92" y1="318.93" x2="439.56" y2="318.93" style="fill:none;stroke:#263238;stroke-linecap:round;stroke-linejoin:round"></line><line x1="357.84" y1="373.06" x2="431.04" y2="373.06" style="fill:none;stroke:#263238;stroke-linecap:round;stroke-linejoin:round"></line><polyline points="373.55 394.23 373.55 384.53 387.11 384.53 387.11 390.78 398.02 390.78 398.02 402.97 404.27 402.97 404.27 384.9 418.12 384.9 418.12 389.1 426.63 389.1" style="fill:none;stroke:#263238;stroke-linecap:round;stroke-linejoin:round"></polyline><line x1="418.12" y1="389.1" x2="418.12" y2="399.5" style="fill:none;stroke:#263238;stroke-linecap:round;stroke-linejoin:round"></line><line x1="404.67" y1="407.37" x2="404.67" y2="414.37" style="fill:none;stroke:#263238;stroke-linecap:round;stroke-linejoin:round"></line><line x1="398.02" y1="402.97" x2="398.02" y2="412.19" style="fill:none;stroke:#263238;stroke-linecap:round;stroke-linejoin:round"></line><line x1="387.11" y1="390.78" x2="387.11" y2="396.07" style="fill:none;stroke:#263238;stroke-linecap:round;stroke-linejoin:round"></line></g><g id="freepik--Character--inject-169"><path d="M234.77,412.2H211.09l-12.82-4.06-4-1.27-1.17,12.07-140.22.26s2.14-5.4,5.63-13.32c7.53-17.09,21.33-45.95,33.4-57.74,9.8-9.57,34.28-9.84,34.28-9.84a15.25,15.25,0,0,1,8.43-2.54c4.5.22,38.52,3.91,40.63,5a11.42,11.42,0,0,1,3.69,3.42s11.92-5.27,23.63-.52S234.77,412.2,234.77,412.2Z" style="fill:#bfbfbf"></path><g style="clip-path:url(#freepik--clip-path-2--inject-169)"><path d="M198.27,408.14l-4-1.27-1.17,12.07-140.22.26s2.14-5.4,5.63-13.32c5.41-.13,11.51-.41,11.51-.41l3.14-10.27s4.93-5.21,11.09-2.14a3.85,3.85,0,0,1,1.59-4.19c2.38-1.58,12.14,3.49,12.14,3.49s4.7-9,6.3-14.89,2.66,8.33,2.66,8.33,4-6.54,4-8.33,7.38,17.73,7.38,17.73,9.76,1.17,12.4,2.17,28.92,2,37.38,0-6,10-6,10,14.86,5,23.26,1.72,12.16-6.79,12.16-6.79S197.83,404.73,198.27,408.14Z" style="fill-opacity:0.7000000000000001;opacity:0.2"></path></g><path d="M234.77,412.2H211.09l-12.82-4.06-4-1.27-1.17,12.07-140.22.26s2.14-5.4,5.63-13.32c7.53-17.09,21.33-45.95,33.4-57.74,9.8-9.57,34.28-9.84,34.28-9.84a15.25,15.25,0,0,1,8.43-2.54c4.5.22,38.52,3.91,40.63,5a11.42,11.42,0,0,1,3.69,3.42s11.92-5.27,23.63-.52S234.77,412.2,234.77,412.2Z" style="fill:none;stroke:#263238;stroke-linecap:round;stroke-linejoin:round"></path><path d="M190.55,381.36a53.13,53.13,0,0,1-7.09,8.11" style="fill:none;stroke:#263238;stroke-linecap:round;stroke-linejoin:round"></path><path d="M176.53,395.3a72.85,72.85,0,0,1-34.74,13.75" style="fill:none;stroke:#263238;stroke-linecap:round;stroke-linejoin:round"></path><path d="M220.32,391.89s3.64-2.26,6.83-1.52,5.83,3.89,5.83,3.89,26.48-2.19,32.49-2,19.46,4.13,19.46,4.13,6.52-1.32,7.22-1.05-1.41,22.46-1.41,22.46h-86c-4.22,0-7.35-6.11-10.52-10.91a215.44,215.44,0,0,0,8.3-58.73" style="fill:#bfbfbf"></path><g style="clip-path:url(#freepik--clip-path-3--inject-169)"><path d="M243.92,417.78H204.76c-4.22,0-7.35-6.11-10.52-10.91a201.81,201.81,0,0,0,6.67-32.94s4.16,6.17,1.63,13.32l2.53-7.15s2.43,7.66,0,14.15-4.16,8.35-4.16,8.35,3,3.92,6.18,2.87,6.64,5.31,6.64,5.31,7.64.29,9.23,0C223.69,410.65,233.58,414.06,243.92,417.78Z" style="fill-opacity:0.7000000000000001;opacity:0.2"></path></g><path d="M220.32,391.89s3.64-2.26,6.83-1.52,5.83,3.89,5.83,3.89,26.48-2.19,32.49-2,19.46,4.13,19.46,4.13,6.52-1.32,7.22-1.05-1.41,22.46-1.41,22.46h-86c-4.22,0-7.35-6.11-10.52-10.91a215.44,215.44,0,0,0,8.3-58.73" style="fill:none;stroke:#263238;stroke-linecap:round;stroke-linejoin:round"></path><path d="M171.16,322.79v21.36a92.48,92.48,0,0,1-8.4,5.09c-5.83,3.09-13.31,6.15-17.76,4.41-8.07-3.17-13.3-15.35-13.3-15.35,8.71-6.64,9.76-15.51,11.08-19.73Z" style="fill:#fff;stroke:#263238;stroke-linecap:round;stroke-linejoin:round"></path><path d="M127.48,339.93s7.39,16.09,16.36,19S168,350.48,168,350.48" style="fill:none;stroke:#263238;stroke-linecap:round;stroke-linejoin:round"></path><path d="M87.13,359.4s14,10.9,16.35,14.57,0,38.23,0,38.23" style="fill:none;stroke:#263238;stroke-linecap:round;stroke-linejoin:round"></path><path d="M68.07,394.57c8.25-5.32,14.05.5,19.06,1.55s16.09-4.61,24.4,0,8.31,3,8.31,3,8.7,6.64,4.21,19.93l-71.2.13s-4.75-10.15,10.86-24.63" style="fill:#bfbfbf;stroke:#263238;stroke-linecap:round;stroke-linejoin:round"></path><path d="M137.84,374l18.79,34.37.59,3.86-3-2.67-19.38-34.12A2.84,2.84,0,0,1,137.84,374Z" style="fill:#9295E3;stroke:#263238;stroke-linecap:round;stroke-linejoin:round"></path><path d="M120,400.92a21.53,21.53,0,0,1,4.35-.79c1.59,0,11.37-7.23,14.69-7.77s9.29,4.41,12.33,5.2,2.85,4.75,4.63,6.33-.79,3.36-3,1.58a4.05,4.05,0,0,1-.8,3.58s.6,2.16,0,3.15H117S116.47,405.47,120,400.92Z" style="fill:#fff;stroke:#263238;stroke-linecap:round;stroke-linejoin:round"></path><polyline points="153.07 405.47 149.9 402.34 141.79 399.74" style="fill:none;stroke:#263238;stroke-linecap:round;stroke-linejoin:round"></polyline><polyline points="152.28 409.05 147.43 406.87 140.8 405.62" style="fill:none;stroke:#263238;stroke-linecap:round;stroke-linejoin:round"></polyline><polyline points="140.8 410.78 147.43 411.08 152.28 412.2" style="fill:none;stroke:#263238;stroke-linecap:round;stroke-linejoin:round"></polyline><path d="M139.07,392.36c-3,2.63,0,5.4-1.43,7.38s-3,2.57-1.78,5.73" style="fill:none;stroke:#263238;stroke-linecap:round;stroke-linejoin:round"></path><path d="M181.88,413.87H342.06a5.33,5.33,0,0,1-5.33,5.33h-142a5.36,5.36,0,0,1-1.64-.26l-11.41-3.68A.71.71,0,0,1,181.88,413.87Z" style="fill:#9295E3"></path><g style="clip-path:url(#freepik--clip-path-4--inject-169)"><path d="M342.06,413.87a5.35,5.35,0,0,1-1.56,3.77l-.16.14a5.3,5.3,0,0,1-3.61,1.42h-142a5.36,5.36,0,0,1-1.64-.26l-11.41-3.68a.71.71,0,0,1,.22-1.39Z" style="fill-opacity:0.7000000000000001;opacity:0.2"></path><path d="M342.06,413.87a5.35,5.35,0,0,1-1.56,3.77l-.16.14H248.69a3.92,3.92,0,0,1-3.92-3.91Z" style="fill-opacity:0.7000000000000001;opacity:0.2"></path></g><path d="M181.88,413.87H342.06a5.33,5.33,0,0,1-5.33,5.33h-142a5.36,5.36,0,0,1-1.64-.26l-11.41-3.68A.71.71,0,0,1,181.88,413.87Z" style="fill:none;stroke:#263238;stroke-linecap:round;stroke-linejoin:round"></path><path d="M244.77,413.87h0a3.92,3.92,0,0,0,3.92,3.91H263.9" style="fill:none;stroke:#263238;stroke-linecap:round;stroke-linejoin:round"></path><path d="M370.73,348.12l0,.13L352.09,413.1a4.32,4.32,0,0,1-3.93,2.95h-97.1a2.2,2.2,0,0,1-2.24-2.95l18.62-64.85a4.31,4.31,0,0,1,3.93-2.95h97.1A2.17,2.17,0,0,1,370.73,348.12Z" style="fill:#9295E3"></path><g style="clip-path:url(#freepik--clip-path-5--inject-169)"><path d="M370.73,348.12l0,.13L352.09,413.1a4.32,4.32,0,0,1-3.93,2.95H251.7l0-.13,18.61-64.85a4.32,4.32,0,0,1,3.93-2.95Z" style="fill:#fff;opacity:0.4"></path></g><path d="M370.73,348.12l0,.13L352.09,413.1a4.32,4.32,0,0,1-3.93,2.95h-97.1a2.2,2.2,0,0,1-2.24-2.95l18.62-64.85a4.31,4.31,0,0,1,3.93-2.95h97.1A2.17,2.17,0,0,1,370.73,348.12Z" style="fill:none;stroke:#263238;stroke-linecap:round;stroke-linejoin:round"></path><path d="M316.76,381.87a10.44,10.44,0,0,1-9,5.87c-4.08,0-6.49-3.16-5.37-7.06a10.38,10.38,0,0,1,9.43-7.07H312a7.25,7.25,0,0,0-.46,1.2C310.39,378.68,312.74,381.81,316.76,381.87Z" style="fill:#fff;stroke:#263238;stroke-linecap:round;stroke-linejoin:round"></path><path d="M252.2,412.87l18.17-63.3a2.52,2.52,0,0,1,2.29-1.72h94.12" style="fill:none;stroke:#263238;stroke-linecap:round;stroke-linejoin:round"></path><path d="M207.09,419.2h-134l1.62-3.38S87.37,417,97.4,413.87c4.43-1.38,11.25-2,18.09-1.92,4.31.06,14.8.1,21.31.07h0c2.32,0,4.14,0,5-.06.33,0,.66,0,1,0a26.28,26.28,0,0,1,5.53.52,41.72,41.72,0,0,1,5.29-.26c3.09,0,16.38-.05,20,0,4.77.06,10.28,1,15.51,1.72l.14-.05,0,.07c6.32.88,12.24,1.48,16-.07Z" style="fill:#fff"></path><g style="clip-path:url(#freepik--clip-path-6--inject-169)"><path d="M207.09,419.2H103.22l2.11-3.63s5.67,3.31,11.21,1S127.66,413,136.8,412h0a32.25,32.25,0,0,1,6-.08,40.63,40.63,0,0,1,11.61,2.64s5.45-2.38,19.21-2.38c4.77.06,10.28,1,15.51,1.72l.14-.05,0,.07c6.32.88,12.24,1.48,16-.07Z" style="fill:#9295E3;opacity:0.4"></path><polygon points="105.33 415.57 74.75 415.82 73.13 419.2 103.22 419.2 105.33 415.57" style="fill:#9295E3"></polygon><path d="M104.08,417.71l1.25-2.14a21.42,21.42,0,0,0,8.57,1.78c4.48-.13,11.56-5.68,25.17-5.41" style="fill:none;stroke:#263238;stroke-linecap:round;stroke-linejoin:round"></path><path d="M148.3,412.46c2.51.92,6.08,2.12,6.08,2.12s4.62-2.66,14.77-2.38" style="fill:none;stroke:#263238;stroke-linecap:round;stroke-linejoin:round"></path><path d="M105.33,415.57s-15.82.28-22.15.42" style="fill:none;stroke:#263238;stroke-linecap:round;stroke-linejoin:round"></path><path d="M152.27,419.2a3.14,3.14,0,0,1,2.51-2.67c2.24-.37,3.69,2.4,3.69,2.4" style="fill:none;stroke:#263238;stroke-linecap:round;stroke-linejoin:round"></path><line x1="154.38" y1="414.58" x2="154.78" y2="416.53" style="fill:none;stroke:#263238;stroke-linecap:round;stroke-linejoin:round"></line><path d="M156.63,416.53s7.12-3.25,14-2.66" style="fill:none;stroke:#263238;stroke-linecap:round;stroke-linejoin:round"></path><path d="M153.7,416.92c-.63-.49-11.32-3.79-22.26-1.35" style="fill:none;stroke:#263238;stroke-linecap:round;stroke-linejoin:round"></path><path d="M152.27,418.27s-9-1.71-16.83-.52" style="fill:none;stroke:#263238;stroke-linecap:round;stroke-linejoin:round"></path><path d="M157.63,417.77A45.32,45.32,0,0,1,176,416.53a113.22,113.22,0,0,0,18.28,1.22" style="fill:none;stroke:#263238;stroke-linecap:round;stroke-linejoin:round"></path></g><path d="M207.09,419.2h-134l1.62-3.38S87.37,417,97.4,413.87c4.43-1.38,11.25-2,18.09-1.92,4.31.06,14.8.1,21.31.07h0c2.32,0,4.14,0,5-.06.33,0,.66,0,1,0a26.28,26.28,0,0,1,5.53.52,41.72,41.72,0,0,1,5.29-.26c3.09,0,16.38-.05,20,0,4.77.06,10.28,1,15.51,1.72l.14-.05,0,.07c6.32.88,12.24,1.48,16-.07Z" style="fill:none;stroke:#263238;stroke-linecap:round;stroke-linejoin:round"></path><path d="M171.16,340.6v3.55a92.48,92.48,0,0,1-8.4,5.09c-6.41-5.89-7.32-17.08-7.32-17.08Z" style="fill:#263238"></path><path d="M143.84,320.15c-7.54-11.15-6-32,3.69-43.38,14.24-16.62,51.4-4.48,51.37,19a63.46,63.46,0,0,1-.84,9.74c-.49,3.1-3.18,6.23-4,9.32s-.49,8-.82,11c-.74,6.83-10.19,20.38-12.75,21.85-3.58,2-22.93-3.43-27.15-15.84" style="fill:#fff;stroke:#263238;stroke-linecap:round;stroke-linejoin:round"></path><path d="M170.21,306.37s5.27-1.92,10,0" style="fill:none;stroke:#263238;stroke-linecap:round;stroke-linejoin:round"></path><path d="M191,306.37s3.84-1.92,6.41,0" style="fill:none;stroke:#263238;stroke-linecap:round;stroke-linejoin:round"></path><path d="M175.14,315.33c-.28,1.35-1.2,2.31-2,2.14s-1.33-1.42-1.05-2.78,1.2-2.31,2.05-2.13S175.42,314,175.14,315.33Z" style="fill:#263238"></path><path d="M192.1,315.33c-.28,1.35-1.2,2.31-2,2.14s-1.33-1.42-1.05-2.78,1.19-2.31,2.05-2.13S192.38,314,192.1,315.33Z" style="fill:#263238"></path><path d="M189.33,308.42s-2.51,4.35-2.77,8,4,11.21,2.77,13.58-6.46,2.25-8.18.8" style="fill:#fff;stroke:#263238;stroke-linecap:round;stroke-linejoin:round"></path><path d="M182.08,335.58a18.42,18.42,0,0,1-10.16-1.45" style="fill:none;stroke:#263238;stroke-linecap:round;stroke-linejoin:round"></path><path d="M151.4,309.87s2.46-2.38,5.36-1.45,3.43,8.83,3.43,8.83L162.3,315s-.79-4.47,2.37-10.74,1.58-13.65,1.58-13.65,5.45,1.84,7.34,6.06c0,0,2.06-4.48,0-7.91,0,0,8.49,2.11,10.6,8.44,0,0,1.67-4.75,1.1-7.12,0,0,5.75,1.84,7.86,7.38,0,0,1.92-4.22,1.09-7.65,0,0,2.32,2,3.21,7.92a18.42,18.42,0,0,0,1.45-11.61s3,3.43,3.48,6.33c0,0,2.44-8.44-11.83-19.78s-38.7-8.77-42.5,0c0,0,1.26-6.46,3.8-8.77,0,0-7,3.12-6.85,9.56,0,0-6.18-.79-9.34,3.17a24.19,24.19,0,0,1,5.8.26s-8.44,5-7.91,16.88,7.91,29,7.91,29l5.78-1.69S148.16,313,151.4,309.87Z" style="fill:#263238"></path><path d="M157.81,312.77s-4.48-7.91-6.85-8.44-6.86,2.64-5.81,6.86,1.85,11.34,3.17,12.13,3.43,5.54,5.54,4.22a2,2,0,0,0,.52-3.17" style="fill:#fff;stroke:#263238;stroke-linecap:round;stroke-linejoin:round"></path><path d="M207.92,373.93a45.54,45.54,0,0,1-1.74,5.74" style="fill:none;stroke:#263238;stroke-linecap:round;stroke-linejoin:round"></path><path d="M204.57,383.49a28.43,28.43,0,0,1-6.86,9.57" style="fill:none;stroke:#263238;stroke-linecap:round;stroke-linejoin:round"></path><path d="M233,394.26c-1.37-.18-4.16,1.55-6.72,3.78" style="fill:none;stroke:#263238;stroke-linecap:round;stroke-linejoin:round"></path><path d="M224.4,399.81c-2,2.07-3.55,4.26-3.55,5.66" style="fill:none;stroke:#263238;stroke-linecap:round;stroke-linejoin:round"></path><path d="M79,388.87s5.69,1.58,5.74,6.46" style="fill:none;stroke:#263238;stroke-linecap:round;stroke-linejoin:round"></path><path d="M100.32,362.23a26.85,26.85,0,0,1,2.57,3.38" style="fill:none;stroke:#263238;stroke-linecap:round;stroke-linejoin:round"></path><path d="M105.14,369.73a19.33,19.33,0,0,1,1.77,7.74c0,8.23-2.37,13-2.37,13" style="fill:none;stroke:#263238;stroke-linecap:round;stroke-linejoin:round"></path><path d="M134.87,354.16A40,40,0,0,0,139.7,358" style="fill:none;stroke:#263238;stroke-linecap:round;stroke-linejoin:round"></path><path d="M144.72,361c5.11,2.58,11.72,4.52,18.58,2.81" style="fill:none;stroke:#263238;stroke-linecap:round;stroke-linejoin:round"></path><g style="opacity:0.2"><path d="M155.44,273.09a31.14,31.14,0,0,1,5.4-.35" style="fill:none;stroke:#fff;stroke-linecap:round;stroke-linejoin:round"></path><path d="M163.47,272.88c4.89.46,10.91,2.17,14.65,7.33" style="fill:none;stroke:#fff;stroke-linecap:round;stroke-linejoin:round"></path><path d="M167.31,269.08s9.17.1,15.74,4.69" style="fill:none;stroke:#fff;stroke-linecap:round;stroke-linejoin:round"></path><path d="M185.63,276a14,14,0,0,1,2.78,4.23" style="fill:none;stroke:#fff;stroke-linecap:round;stroke-linejoin:round"></path><path d="M153.07,277s9,3.17,12.13,8.84" style="fill:none;stroke:#fff;stroke-linecap:round;stroke-linejoin:round"></path><path d="M148.71,280.21a25.56,25.56,0,0,1,4.13,9" style="fill:none;stroke:#fff;stroke-linecap:round;stroke-linejoin:round"></path><path d="M153.4,293.66a17.48,17.48,0,0,1-.33,3.56" style="fill:none;stroke:#fff;stroke-linecap:round;stroke-linejoin:round"></path><path d="M142.65,283.9a28.41,28.41,0,0,0-1.15,3.61" style="fill:none;stroke:#fff;stroke-linecap:round;stroke-linejoin:round"></path><path d="M140.79,291a30.72,30.72,0,0,0-.12,9.43" style="fill:none;stroke:#fff;stroke-linecap:round;stroke-linejoin:round"></path></g><polyline points="260.67 436.98 386.87 436.98 386.87 419.2 35.31 419.2 35.31 436.98 106.39 436.98" style="fill:#fff;stroke:#263238;stroke-linecap:round;stroke-linejoin:round"></polyline><line x1="251.61" y1="436.98" x2="233.69" y2="436.98" style="fill:#fff;stroke:#263238;stroke-linecap:round;stroke-linejoin:round"></line></g></svg>